<?xml version="1.0" ?><svg xmlns="http://www.w3.org/2000/svg" xmlns:xlink="http://www.w3.org/1999/xlink" version="1.1" viewBox="0 0 512 512" style="enable-background:new 0 0 512 512;" xml:space="preserve"><g id="_x32_2_x2C__sewing_x2C__machine_x2C__fashion_x2C__sew_x2C__thread_x2C___DIY_x2C__handcraft"><g id="XMLID_462_"><g id="XMLID_463_"><path id="XMLID_130_" style="fill:#8DFBCC;" d="M96,286v40c-13.99,0-26.01,0-40,0v-40l18.667-10L96,286z"/><polygon id="XMLID_129_" style="fill:#8DFBCC;" points="401,66 401,116 381,126 361,116 361,66    "/><path id="XMLID_128_" style="fill:#8DFBCC;" d="M451,386h50c0,33.138-26.859,60-60,60H71c-33.14,0-60-26.86-60-60     c4.564,0,310.079,0,320,0l55-10L451,386z"/><polygon id="XMLID_127_" style="fill:#8DFBCC;" points="491,156 491,226 451,226 441,192.666 451,156    "/><path id="XMLID_501_" style="fill:#FFFFFF;" d="M451,386H331c0-37.968,0-142.055,0-180H121v60c0,11.05-8.95,20-20,20     c-10.041,0-39.959,0-50,0c-11.05,0-20-8.95-20-20v-40h20c11.05,0,20-8.95,20-20v-30c0-11.05-8.95-20-20-20H31v-10     c0-16.57,13.43-30,30-30c19.513,0,345.778,0,360,0c16.57,0,30,13.43,30,30C451,154.495,451,369.854,451,386z"/><path id="XMLID_125_" style="fill:#8DFBCC;" d="M71,176v30c0,11.05-8.95,20-20,20H31v-70h20C62.05,156,71,164.95,71,176z"/><path id="XMLID_124_" style="fill:#8DFBCC;" d="M391,246c11.05,0,20,8.95,20,20c0,11.05-8.95,20-20,20s-20-8.95-20-20     C371,254.95,379.95,246,391,246z"/><g id="XMLID_7_"><path id="XMLID_123_" style="fill:#262792;" d="M371,166h40c5.522,0,10-4.478,10-10s-4.478-10-10-10h-40      c-5.522,0-10,4.478-10,10S365.478,166,371,166z"/><path id="XMLID_122_" style="fill:#262792;" d="M371,216h40c5.522,0,10-4.478,10-10s-4.478-10-10-10h-40      c-5.522,0-10,4.478-10,10S365.478,216,371,216z"/><path id="XMLID_480_" style="fill:#262792;" d="M391,296c16.542,0,30-13.458,30-30s-13.458-30-30-30s-30,13.458-30,30      S374.458,296,391,296z M391,256c5.514,0,10,4.486,10,10s-4.486,10-10,10s-10-4.486-10-10S385.486,256,391,256z"/><path id="XMLID_466_" style="fill:#262792;" d="M501,376h-40V236h30c5.522,0,10-4.478,10-10v-70c0-5.522-4.478-10-10-10h-30      c0-22.056-17.944-40-40-40h-10V66c0-5.522-4.478-10-10-10h-40c-5.522,0-10,4.478-10,10v40H91V66c0-5.522-4.478-10-10-10      s-10,4.478-10,10v40H61c-22.056,0-40,17.944-40,40c0,26.319,0,95.935,0,120c0,14.838,10.831,27.187,25,29.575V326      c0,5.522,4.478,10,10,10h10v40H11c-5.522,0-10,4.478-10,10c0,38.599,31.401,70,70,70h370c38.599,0,70-31.401,70-70      C511,380.478,506.522,376,501,376z M481,166v50h-20v-50H481z M371,76h20v30h-20V76z M41,166h10c5.514,0,10,4.486,10,10v30      c0,5.514-4.486,10-10,10H41V166z M41,266v-30h10c16.542,0,30-13.458,30-30v-30c0-16.542-13.458-30-30-30H41      c0-11.028,8.972-20,20-20c12.617,0,345.824,0,360,0c11.028,0,20,8.972,20,20c0,6.993,0,222.487,0,230H341V206      c0-5.522-4.478-10-10-10H121c-5.522,0-10,4.478-10,10v60c0,5.514-4.486,10-10,10c-10.041,0-39.958,0-50,0      C45.486,276,41,271.514,41,266z M66,316v-20h20v20H66z M86,336h10c5.522,0,10-4.478,10-10v-30.425      c14.169-2.388,25-14.737,25-29.575v-50h190v160H86V336z M441,436H71c-24.146,0-44.35-17.206-48.995-40h467.99      C485.35,418.794,465.146,436,441,436z"/></g></g></g></g><g id="Layer_1"/></svg>